<?xml version="1.0" encoding="iso-8859-1"?>
<!-- Generator: Adobe Illustrator 19.0.0, SVG Export Plug-In . SVG Version: 6.00 Build 0)  -->
<svg version="1.1" id="Capa_1" xmlns="http://www.w3.org/2000/svg" xmlns:xlink="http://www.w3.org/1999/xlink" x="0px" y="0px"
	 viewBox="0 0 512 512" style="enable-background:new 0 0 512 512;" xml:space="preserve">
<path style="fill:#92DBEF;" d="M512,402.282c0,16.716-13.55,30.267-30.265,30.267H30.265C13.55,432.549,0,418.997,0,402.282V109.717
	c0-16.716,13.55-30.266,30.265-30.266h451.47c16.716,0,30.265,13.551,30.265,30.266V402.282L512,402.282z"/>
<path style="opacity:0.15;fill:#202121;enable-background:new    ;" d="M21.517,402.282V109.717
	c0-16.716,13.552-30.266,30.267-30.266h-21.52C13.55,79.451,0,93.001,0,109.717v292.565c0,16.716,13.55,30.267,30.265,30.267h21.52
	C35.07,432.549,21.517,418.997,21.517,402.282z"/>
<path style="fill:#263B80;" d="M332.435,148.47c-11.22-12.825-32.057-19.233-60.905-19.233h-80.143
	c-4.811,0-9.616,4.812-11.22,9.613L148.11,348.817c0,4.815,3.207,8.014,6.407,8.014h49.687l12.823-78.534v3.206
	c1.606-4.813,6.409-9.615,11.222-9.615h24.045c46.479,0,81.733-19.233,92.955-72.132v-4.808c-1.602,0-1.602,0,0,0
	C346.854,174.117,343.648,161.292,332.435,148.47"/>
<path style="fill:#232C65;" d="M345.25,199.756v-4.808c0.011-0.159,0.018-0.307,0.028-0.465c-2.85-1.981-5.52-3.363-7.561-4.259
	c-9.732-4.021-19.684-4.779-24.278-4.894l-0.024-0.02h-23.374c0,0,0.02,0.012,0.03,0.019h-49.03
	c-8.336,0.303-10.634,7.024-11.236,9.948l-12.777,83.021v1.97v1.235c1.606-4.813,6.409-9.615,11.222-9.615h24.045
	C298.774,271.888,334.028,252.654,345.25,199.756z"/>
<path style="fill:#139AD6;" d="M360.996,214.814c-3.622-9.993-10.031-16.378-15.717-20.332c-0.011,0.158-0.018,0.306-0.028,0.465
	v4.808c-11.222,52.898-46.476,72.132-92.955,72.132h-24.045c-4.813,0-9.616,4.801-11.222,9.615v-1.236
	c-0.183,0.41-0.352,0.823-0.49,1.236l-9.055,55.247l-3.279,20.082h-0.012l-3.679,22.442c0,3.204,1.605,6.403,6.408,6.403h39.953
	c8.038,0,10.563-6.253,11.339-9.622l0.339-2.093v-0.001l7.672-47.584c0,0,1-11.219,11.945-11.219h4.089
	c40.07,0,72.126-16.025,80.139-64.107C364.626,237.645,364.516,225.032,360.996,214.814z"/>
<g>
</g>
<g>
</g>
<g>
</g>
<g>
</g>
<g>
</g>
<g>
</g>
<g>
</g>
<g>
</g>
<g>
</g>
<g>
</g>
<g>
</g>
<g>
</g>
<g>
</g>
<g>
</g>
<g>
</g>
</svg>
